# xmcd CD database file
#
# Track frame offsets:
#	150
#	10470
#	24513
#	35530
#	48333
#	61548
#	74033
#	85943
#	99395
#	112193
#	126083
#	140480
#	153775
#	164433
#	177155
#	189070
#
# Disc length: 2678 seconds
#
# Revision: 3
# Processed by: cddbd v1.5.2PL0 Copyright (c) Steve Scherf et al.
# Submitted via: CDex 1.51
#
DISCID=cf0a7410
DTITLE=Rusty Draper - Green, Green Grass Of Home
DYEAR=1951
DGENRE=Country
TTITLE0=Walking On New Grass
TTITLE1=By The Time I Get To Phoenix
TTITLE2=Little Ole Winedrinker Me
TTITLE3=Am I That Easy To Forget
TTITLE4=Not Enough Indians
TTITLE5=Something Old, Something New
TTITLE6=Don´t Build No Fences For Me
TTITLE7=Wichita Lineman
TTITLE8=Release Me
TTITLE9=Gentle On My Mind
TTITLE10=Green, Green Grass Of Home
TTITLE11=I Walk Alone
TTITLE12=You Call Everybody Darling
TTITLE13=Folsom Prison Blues
TTITLE14=Mystery Train
TTITLE15=Blue Skirt Waltz
EXTD=YEAR: 1951
EXTT0=
EXTT1=
EXTT2=
EXTT3=
EXTT4=
EXTT5=
EXTT6=
EXTT7=
EXTT8=
EXTT9=
EXTT10=
EXTT11=
EXTT12=
EXTT13=
EXTT14=
EXTT15=
PLAYORDER=
